PathFileType	4	(X/Y/Z)	s07c0201.trc
DataRate	CameraRate	NumFrames	NumMarkers	Units	OrigDataRate	OrigDataStartFrame	OrigNumFrames
200	200	5	48	mm	200	500	2000
Frame#	Time	racr			lacr			c7			jug			rlel			rdr			llel			ldr			s2			lic			ric			lasi			rasi			rpsi			lpsi			rgt			lgt			rth1			rth2			rth3			rth4			rlfc			rmfc			rsh1			rsh2			rsh3			rsh4			rlmal			rcal			rtoe			rmt5			lth1			lth2			lth4			lth3			llfc			lmfc			lsh1			lsh2			lsh3			lsh4			llmal			lcal			ltoe			lmt5			SBIKE			LBIKE			RBIKE			
		X1	Y1	Z1	X2	Y2	Z2	X3	Y3	Z3	X4	Y4	Z4	X5	Y5	Z5	X6	Y6	Z6	X7	Y7	Z7	X8	Y8	Z8	X9	Y9	Z9	X10	Y10	Z10	X11	Y11	Z11	X12	Y12	Z12	X13	Y13	Z13	X14	Y14	Z14	X15	Y15	Z15	X16	Y16	Z16	X17	Y17	Z17	X18	Y18	Z18	X19	Y19	Z19	X20	Y20	Z20	X21	Y21	Z21	X22	Y22	Z22	X23	Y23	Z23	X24	Y24	Z24	X25	Y25	Z25	X26	Y26	Z26	X27	Y27	Z27	X28	Y28	Z28	X29	Y29	Z29	X30	Y30	Z30	X31	Y31	Z31	X32	Y32	Z32	X33	Y33	Z33	X34	Y34	Z34	X35	Y35	Z35	X36	Y36	Z36	X37	Y37	Z37	X38	Y38	Z38	X39	Y39	Z39	X40	Y40	Z40	X41	Y41	Z41	X42	Y42	Z42	X43	Y43	Z43	X44	Y44	Z44	X45	Y45	Z45	X46	Y46	Z46	X47	Y47	Z47	X48	Y48	Z48	
500	2.5000	411.855392	1484.251891	-84.795011	435.213715	1459.187578	-366.521308	381.845503	1534.168549	-236.254451	351.663633	1385.433233	-229.535727	476.302258	1152.208283	29.138584	691.926672	955.303139	-70.186653	474.409881	1149.700146	-540.319153	674.288452	938.990546	-444.932333	-139.926089	1204.011282	-268.366156	8.700449	1263.102336	-398.351343	14.213032	1272.719083	-116.459441	51.967043	1193.064646	-387.535677	40.959378	1224.584421	-140.716348	-120.086215	1248.359530	-220.420515	-109.602870	1253.459061	-329.411094	-8.212024	1157.992508	-72.011451	-34.369764	1103.122156	-430.674762	131.310518	1117.301734	-74.700196	218.203141	1109.980601	-87.001670	291.612642	1066.322704	-82.604326	226.821251	1139.049793	-109.546465	410.060658	980.604654	-116.482690	399.456850	962.263381	-223.058265	329.441476	866.697246	-89.561008	289.274003	789.669042	-104.251648	217.655171	739.303727	-96.284723	300.078679	781.045531	-143.518438	123.221280	640.638195	-88.866837	45.253561	644.387136	-117.882060	262.690509	450.059674	-131.518006	184.457527	475.811483	-60.571374	10.148537	990.120375	-445.157960	64.880825	921.740063	-454.998389	98.689311	936.014976	-449.798928	79.432684	833.595028	-448.951425	156.549876	679.623219	-412.863113	151.347249	661.603096	-319.485982	128.046628	536.489184	-432.635547	139.441739	453.510748	-412.485264	106.473240	369.210404	-415.480985	143.890543	457.240391	-370.448896	82.975485	235.393068	-405.275260	15.822675	197.137383	-373.122608	305.000536	177.846188	-358.444401	234.555408	143.949739	-419.491316	-262.909915	974.952263	-238.221396	-82.780046	79.093785	-435.090016	-82.417210	79.459058	-37.711500	
501	2.5050	409.242133	1485.149636	-82.063389	436.513428	1458.787656	-363.404243	382.008215	1534.811924	-234.180800	350.583447	1386.039810	-227.161922	476.076178	1152.626307	28.483575	692.487093	956.183734	-70.096856	475.342959	1150.538884	-541.090424	675.001741	939.194876	-445.832925	-140.211573	1204.864593	-270.147977	9.641694	1262.869117	-399.788948	13.272340	1274.237650	-117.876999	52.332448	1193.065087	-388.249895	40.190762	1225.933618	-141.907414	-120.496166	1249.432360	-222.467853	-109.482203	1254.011937	-331.586263	-9.034499	1160.480479	-72.996538	-34.177579	1103.195031	-431.531060	130.642090	1120.853024	-75.860111	217.650851	1113.943057	-88.292811	291.233005	1070.770012	-83.639749	226.041799	1142.902257	-111.119593	410.608385	985.685453	-117.242212	400.089208	966.895896	-223.846488	331.599783	870.745121	-90.176332	292.544845	793.158256	-104.500666	221.504337	741.813831	-96.471057	303.391437	784.439971	-143.759932	128.353134	641.492900	-88.637590	50.134631	643.557936	-117.518918	272.086493	454.257138	-131.721330	193.365006	478.175289	-60.586072	10.124801	990.208043	-445.357533	64.810814	921.639801	-454.507195	98.508863	935.981772	-449.982420	79.170076	833.588073	-448.945018	155.580380	678.903272	-412.145202	150.199828	661.193122	-318.617628	125.189883	536.254562	-431.785688	135.306491	453.217197	-411.662975	101.125665	369.352452	-414.690192	139.838667	456.796804	-369.649093	75.556268	236.030833	-404.797387	7.869859	198.554026	-372.671355	296.664764	175.032539	-358.246132	225.786210	142.396472	-419.202177	-262.991094	974.918195	-238.185723	-82.802828	79.098968	-435.078326	-82.427657	79.466567	-37.674631	
502	2.5100	406.589721	1486.131853	-79.344051	437.920809	1458.103554	-360.140371	382.286628	1534.981210	-231.749293	349.393313	1386.426051	-224.628882	475.591819	1153.282347	28.242328	692.977175	957.045409	-69.988730	476.394094	1151.249817	-541.739137	676.019614	940.288988	-447.105411	-140.763819	1205.752742	-271.753793	10.467731	1262.817987	-401.181515	12.098098	1275.728439	-119.130258	52.531122	1193.194041	-388.954516	39.228313	1227.318910	-142.955539	-121.124680	1250.655704	-224.355898	-109.350069	1254.850569	-333.848218	-10.112897	1162.938158	-73.934635	-34.178062	1103.278376	-432.231132	129.801078	1124.180985	-77.160871	216.797929	1117.560614	-89.613462	290.600368	1074.834617	-84.725325	224.941666	1146.072653	-112.796714	410.674738	990.103546	-117.994233	400.001199	971.237244	-224.111579	333.362159	874.262258	-90.899370	295.450455	795.785920	-104.741253	225.312343	743.486053	-96.583013	306.570078	787.233886	-143.879179	133.510138	641.529651	-88.306471	55.144398	642.006541	-116.944339	281.474576	457.997270	-131.869145	202.058837	479.638883	-60.870317	10.290753	990.427748	-445.457616	65.121532	921.964918	-454.142038	98.808549	936.358670	-450.018587	79.704991	833.993350	-448.467634	155.603835	678.702686	-411.432140	150.111469	661.358285	-317.718385	123.165486	536.546210	-430.798838	131.784754	453.398852	-410.759463	96.167759	370.152154	-413.905438	136.301413	457.041076	-368.767543	68.192588	237.223642	-404.416789	-0.044659	200.699339	-372.222998	288.314160	172.677635	-358.050438	209.137127	147.840260	-425.012022	-263.086152	974.881624	-238.046166	-82.800208	79.106025	-435.082130	-82.459195	79.475194	-37.681747	
503	2.5150	404.129087	1486.728394	-77.058349	439.284045	1457.124093	-356.712493	382.706083	1534.805086	-229.239536	348.157156	1386.246216	-222.062886	475.159783	1153.952098	28.017283	693.424839	957.806174	-69.809108	477.575257	1152.181235	-542.972387	677.090169	941.341869	-447.928617	-141.511103	1206.646517	-273.162792	11.032776	1262.832195	-402.338707	10.666946	1277.247315	-120.333397	52.484847	1193.383761	-389.478175	38.049354	1228.729512	-144.011669	-121.929846	1251.954514	-226.143541	-109.620292	1255.524697	-335.396058	-11.469267	1165.357098	-74.852521	-34.361924	1103.423150	-432.916250	128.763990	1126.993443	-78.412653	215.751006	1120.927632	-90.878062	289.805159	1078.453889	-85.788544	223.758561	1149.299269	-114.210266	410.134309	993.923906	-118.643857	399.785451	974.799970	-224.945170	334.759535	877.144769	-91.443364	296.809295	797.746384	-106.391103	228.861874	744.670421	-96.560521	309.554730	789.294234	-143.960277	138.539829	640.990307	-87.851554	60.006384	639.778584	-116.246203	290.817665	461.513252	-132.023000	211.073691	481.121409	-60.777258	10.676356	990.709260	-445.480256	65.908824	922.540854	-453.566255	99.494135	937.133104	-449.692442	80.990201	834.721505	-447.690310	156.719700	678.880236	-410.612668	150.923828	661.950880	-316.690507	122.065389	537.196235	-429.789740	128.834727	453.899801	-409.750083	91.692036	371.402190	-413.103697	133.276561	457.422239	-367.706563	60.916781	239.240575	-404.291775	-8.125491	203.308464	-371.821536	279.877856	170.782577	-357.876887	200.462349	147.316096	-424.823393	-263.194569	974.854729	-237.921728	-82.826603	79.124776	-435.074671	-82.477706	79.471730	-37.677867	
504	2.5200	401.863947	1487.370644	-74.926311	440.589475	1455.846433	-353.307076	382.989404	1534.126182	-226.837000	346.805875	1385.878166	-219.678529	474.687100	1154.635458	27.847091	693.672950	958.643676	-69.658426	478.542964	1152.710455	-543.396019	678.050020	942.353267	-448.664090	-142.447715	1207.644086	-274.397135	11.363326	1262.894695	-403.402913	9.218999	1278.693376	-121.506000	52.185928	1193.474285	-389.813693	36.649283	1230.249500	-144.895510	-122.882798	1253.211317	-227.810344	-110.062119	1256.293958	-336.939843	-13.050476	1167.730331	-75.690120	-34.788948	1103.439423	-433.585170	127.522307	1129.497768	-79.471530	214.617378	1123.610512	-92.038230	288.681469	1081.473343	-86.921597	222.424528	1152.107188	-115.415406	409.156870	997.134019	-119.472562	399.115406	977.778834	-225.931593	335.678913	879.498040	-91.987636	299.318329	799.136996	-106.410748	232.122049	745.032035	-96.525747	312.161365	790.862629	-143.993433	143.494943	639.720942	-87.321178	64.940632	636.587259	-115.442994	300.372407	464.620631	-132.079248	220.160481	482.153664	-60.205648	11.261747	990.994124	-445.381157	67.176491	923.349589	-452.806004	100.565875	938.195779	-449.051095	83.041919	835.617696	-446.551685	158.980342	679.434887	-409.692936	152.228190	662.756623	-316.138264	121.734164	538.397212	-428.787947	126.578865	455.007721	-408.840861	87.655586	373.255200	-412.307370	130.927267	458.534391	-366.654722	53.784510	241.814778	-403.972295	-15.662060	206.923573	-371.375358	271.386702	169.256346	-357.643098	191.509901	147.451199	-424.577052	-263.295768	974.794123	-237.768635	-82.845051	79.144120	-435.056750	-82.466272	79.381281	-37.665930	
